<?xml version="1.0" encoding="UTF-8"?>
<!-- Generator: Adobe Illustrator 15.0.2, SVG Export Plug-In . SVG Version: 6.00 Build 0)  -->
<!DOCTYPE svg PUBLIC "-//W3C//DTD SVG 1.1//EN" "http://www.w3.org/Graphics/SVG/1.1/DTD/svg11.dtd">
<svg xmlns="http://www.w3.org/2000/svg" xmlns:xlink="http://www.w3.org/1999/xlink" version="1.1" id="Layer_1" x="0px" y="0px" width="512px" height="512px" viewBox="0 0 512 512" enable-background="new 0 0 512 512" xml:space="preserve">
<path d="M0,157.537h118.15V512H0V157.537z M177.226,157.537h118.144v43.208c37.529-22.457,81.993-43.208,118.15-43.208  c78.78,0,98.48,78.763,98.48,78.763V512H393.844V275.693c-15.279-45.806-54.217-44.264-98.475-4.554V512H177.226V157.537z M59.075,0  c32.628,0,59.075,26.453,59.075,59.075c0,32.628-26.447,59.075-59.075,59.075C26.453,118.15,0,91.703,0,59.075  C0,26.453,26.453,0,59.075,0z" fill="#000000"/>
</svg>
